<?xml version="1.0" encoding="utf-8"?>
<!-- Svg Vector Icons : http://www.onlinewebfonts.com/icon -->
<!DOCTYPE svg PUBLIC "-//W3C//DTD SVG 1.1//EN" "http://www.w3.org/Graphics/SVG/1.1/DTD/svg11.dtd">
<svg version="1.1" xmlns="http://www.w3.org/2000/svg" xmlns:xlink="http://www.w3.org/1999/xlink" x="0px" y="0px" viewBox="0 0 1000 1000" enable-background="new 0 0 1000 1000" xml:space="preserve">
<metadata> Svg Vector Icons : http://www.onlinewebfonts.com/icon </metadata>
<g><g transform="translate(0.000000,512.000000) scale(0.100000,-0.100000)"><path d="M100,426.6v-4599.1h1149.8h1149.8v306.6v306.6h-843.2H713.2v3372.7v3372.7h3985.9h3985.9v-306.6v-306.6h306.6h306.6v1226.4v1226.4H4699.1H100V426.6z"/><path d="M7502.7,2111c-304.7-38.3-657.3-174.4-931.3-356.4c-285.5-189.7-574.9-528.9-732-858.5c-197.4-419.7-251-944.7-143.7-1408.5l44.1-180.1L5686-972.3c-78.6-412-13.4-364.1-498.2-364.1h-412V-1758v-421.6h-459.9H3856v-459.9v-459.9h-421.6h-421.6v-843.2v-843.2h881.5h881.5v421.6v421.6h421.6H5619v459.9v459.9h421.6h421.6v412c0,410.1,0,413.9,44.1,429.3c23,7.7,164.8,40.2,316.2,69l274,53.7l195.5-46c270.2-63.3,726.3-65.2,977.3-1.9c774.2,193.6,1343.3,735.9,1579,1508.1c49.8,164.8,51.7,189.7,51.7,584.5s-1.9,419.7-51.7,582.5c-256.8,831.7-917.9,1408.5-1751.5,1535C7895.5,2134,7694.3,2136,7502.7,2111z M8650.6,1218c162.9-76.7,289.4-203.1,366-366c57.5-118.8,61.3-143.7,61.3-329.6c0-189.7-3.8-210.8-63.2-329.6c-168.6-343-555.7-511.7-917.9-400.5C7567.9-44.8,7378.1,624,7749.9,1030.2c176.3,193.5,335.4,260.6,599.8,253C8499.2,1279.4,8539.4,1271.7,8650.6,1218z"/><path d="M8685.1-3099.4v-459.9H7458.6H6232.2v-306.6v-306.6h1533h1533v766.5v766.5h-306.6h-306.6V-3099.4z"/></g></g>
</svg>