<?xml version="1.0" standalone="no"?>
<!DOCTYPE svg PUBLIC "-//W3C//DTD SVG 20010904//EN"
 "http://www.w3.org/TR/2001/REC-SVG-20010904/DTD/svg10.dtd">
<svg version="1.0" xmlns="http://www.w3.org/2000/svg"
 width="700.000000pt" height="700.000000pt" viewBox="0 0 700.000000 700.000000"
 preserveAspectRatio="xMidYMid meet">
<metadata>
Created by potrace 1.14, written by Peter Selinger 2001-2017
</metadata>
<g transform="translate(0.000000,700.000000) scale(0.100000,-0.100000)"
fill="#000000" stroke="none">
<path d="M5970 5955 c-8 -9 -35 -65 -127 -265 -14 -30 -46 -98 -71 -150 -24
-52 -57 -122 -72 -155 -30 -65 -31 -68 -238 -510 -190 -407 -224 -479 -260
-555 -17 -36 -42 -90 -55 -120 -14 -30 -46 -100 -72 -155 -26 -55 -63 -134
-82 -175 -19 -41 -52 -111 -73 -155 -42 -89 -98 -209 -140 -300 -58 -127 -89
-193 -134 -287 -25 -53 -61 -129 -80 -170 -40 -88 -85 -183 -138 -298 -59
-125 -310 -662 -353 -755 -20 -44 -51 -109 -67 -145 -17 -36 -67 -141 -111
-235 -204 -434 -226 -484 -219 -488 4 -1 148 -2 321 -2 265 1 316 3 323 15 8
15 40 82 216 460 55 118 118 253 140 300 22 47 53 114 70 150 16 36 51 110 77
165 44 94 61 131 134 288 16 34 49 105 74 157 24 52 56 120 70 150 13 30 43
93 65 140 159 340 204 435 223 477 12 26 48 103 80 171 33 68 59 125 59 127 0
1 24 54 54 116 30 63 70 148 89 189 78 168 317 681 357 765 23 50 71 151 105
225 99 212 204 437 247 530 22 47 53 112 68 145 28 60 97 208 140 298 12 26
20 51 16 55 -12 11 -627 8 -636 -3z"/>
<path d="M675 3944 c-212 -32 -461 -145 -658 -298 -16 -12 -17 -38 -15 -346
l3 -333 50 40 c175 138 354 230 524 269 102 24 155 29 296 28 230 -3 415 -56
818 -239 61 -28 218 -75 315 -94 77 -16 126 -20 237 -17 149 4 163 6 266 30
159 37 387 151 521 262 15 12 33 24 39 26 10 3 13 86 14 339 1 184 0 337 -2
341 -2 4 -41 -21 -86 -56 -206 -158 -352 -233 -532 -273 -106 -23 -311 -23
-415 1 -41 9 -82 19 -90 21 -53 12 -190 64 -315 120 -80 36 -151 65 -158 65
-7 0 -17 4 -23 8 -11 11 -139 55 -214 75 -49 13 -71 18 -160 34 -65 12 -332
10 -415 -3z"/>
</g>
</svg>
